<?xml version="1.0" encoding="utf-8"?>
<!-- Generator: Adobe Illustrator 22.0.1, SVG Export Plug-In . SVG Version: 6.00 Build 0)  -->
<svg version="1.1" id="Layer_1" xmlns="http://www.w3.org/2000/svg" xmlns:xlink="http://www.w3.org/1999/xlink" x="0px" y="0px"
	 viewBox="0 0 304 354" style="enable-background:new 0 0 304 354;" xml:space="preserve">
<style type="text/css">
	.st0{fill:#AF352F;}
	.st1{opacity:0.25;}
	.st2{fill:#FFFFFF;}
	.st3{font-family:'ProximaNova-Regular';}
	.st4{font-size:30px;}
	.st5{font-family:'ProximaNova-Bold';}
	.st6{font-size:54px;}
	.st7{letter-spacing:1;}
	.st8{letter-spacing:-1;}
</style>
<g>
	<g>
		<path class="st0" d="M152,2L152,2C69.2,2,2,69.2,2,152v0c0,42.4,17.6,80.8,46,108.1h0c0,0,0,0,0,0c2.5,2.4,5,4.7,7.6,6.9
			c32.6,28.7,69.2,53.8,96.4,85.1v-0.7l0.1,0.7c29.3-33.8,69.7-60.3,104-91.9H256c28.3-27.3,46-65.6,46-108.1v0
			C302,69.2,234.8,2,152,2z"/>
		<path class="st1" d="M152,277L152,277c-69,0-125-56-125-125v0C27,83,83,27,152,27h0c69,0,125,56,125,125v0
			C277,221,221,277,152,277z"/>
		<text transform="matrix(1 0 0 1 124.985 102.0139)"><tspan x="0" y="0" class="st2 st3 st4">THE</tspan><tspan x="-61" y="55" class="st2 st5 st6 st7">PERRY</tspan><tspan x="-64.4" y="110" class="st2 st5 st6 st8">GROUP</tspan></text>
	</g>
</g>
</svg>
