<?xml version="1.0" standalone="no"?>
<!DOCTYPE svg PUBLIC "-//W3C//DTD SVG 20010904//EN"
 "http://www.w3.org/TR/2001/REC-SVG-20010904/DTD/svg10.dtd">
<svg version="1.0" xmlns="http://www.w3.org/2000/svg"
 width="1000.000000pt" height="1000.000000pt" viewBox="0 0 1000.000000 1000.000000"
 preserveAspectRatio="xMidYMid meet">
<metadata>
Created by potrace 1.11, written by Peter Selinger 2001-2013
</metadata>
<g transform="translate(0.000000,1000.000000) scale(0.100000,-0.100000)"
fill="#000000" stroke="none">
<path d="M4765 8984 c-1112 -92 -2079 -734 -2578 -1711 -188 -369 -288 -704
-332 -1113 -17 -157 -19 -482 -5 -631 65 -659 327 -1274 751 -1764 179 -207
399 -403 960 -859 375 -305 620 -508 617 -512 -2 -1 -79 -7 -173 -13 -1101
-73 -1848 -245 -2082 -478 -83 -83 -107 -216 -59 -318 141 -296 952 -496 2341
-577 132 -7 451 -13 795 -13 945 0 1623 55 2245 180 630 127 915 290 915 525
0 181 -147 304 -500 421 -368 121 -958 213 -1665 260 -93 6 -171 12 -172 13
-3 3 159 137 502 416 806 655 1005 841 1237 1160 282 388 479 858 557 1330 59
356 56 754 -8 1106 -141 772 -581 1479 -1216 1954 -435 326 -935 530 -1485
605 -111 15 -536 28 -645 19z m5 -1709 c0 -24 -2 -25 -65 -25 l-65 0 0 -185 0
-185 -30 0 -30 0 0 185 0 185 -65 0 c-63 0 -65 1 -65 25 l0 25 160 0 160 0 0
-25z m110 -65 l0 -90 120 0 120 0 0 90 0 90 30 0 30 0 0 -210 0 -210 -30 0
-30 0 0 95 0 95 -120 0 -120 0 0 -95 0 -95 -30 0 -30 0 0 210 0 210 30 0 30 0
0 -90z m658 68 c-3 -22 -7 -23 -115 -26 l-113 -3 0 -64 0 -65 110 0 110 0 0
-25 0 -25 -110 0 -110 0 0 -70 0 -70 115 0 115 0 0 -25 0 -25 -140 0 -140 0 0
210 0 210 141 0 c140 0 140 0 137 -22z m-1833 -822 c94 -43 141 -129 133 -241
-6 -73 -40 -141 -87 -175 -56 -39 -107 -50 -237 -50 l-124 0 0 -135 0 -135
-80 0 -80 0 0 380 0 380 213 0 c201 0 215 -1 262 -24z m815 -46 l0 -70 -190 0
-190 0 0 -80 0 -80 185 0 186 0 -3 -72 -3 -73 -182 -3 -183 -2 0 -80 0 -80
188 -2 187 -3 3 -72 3 -73 -276 0 -275 0 0 380 0 380 275 0 275 0 0 -70z m651
38 c164 -96 152 -356 -19 -427 l-30 -13 52 -86 c29 -48 67 -113 85 -144 l32
-58 -95 0 -95 0 -73 135 -73 134 -57 1 -58 0 0 -135 0 -135 -85 0 -85 0 0 381
0 380 228 -3 c226 -3 227 -3 273 -30z m720 20 c52 -15 117 -73 140 -122 21
-47 25 -145 7 -197 -18 -53 -55 -96 -104 -119 -51 -25 -56 -6 48 -179 39 -64
72 -119 75 -123 2 -5 -40 -8 -94 -8 l-98 1 -73 134 -73 135 -59 0 -60 0 0
-135 0 -135 -80 0 -80 0 0 380 0 380 206 0 c128 0 221 -4 245 -12z m493 -133
c48 -80 91 -145 95 -145 3 0 46 66 94 145 l89 145 94 0 94 0 -37 -57 c-20 -32
-85 -134 -145 -226 l-108 -169 0 -154 0 -154 -80 0 -80 0 0 153 0 153 -145
223 c-80 122 -145 224 -145 227 0 2 42 4 93 4 l92 -1 89 -144z m-2727 -1027
c28 -10 67 -31 86 -47 35 -27 87 -84 87 -94 0 -3 -29 -21 -65 -41 l-66 -36
-34 34 c-73 73 -183 85 -274 28 -112 -69 -146 -240 -71 -354 63 -95 198 -130
303 -79 47 23 47 23 47 72 l0 49 -100 0 -100 0 0 70 0 70 185 0 185 0 0 -150
0 -150 -61 -45 c-87 -64 -174 -89 -287 -83 -116 7 -186 34 -261 104 -78 72
-113 149 -119 260 -5 100 15 178 64 251 99 145 305 206 481 141z m1483 5 c147
-48 245 -177 257 -337 10 -130 -30 -239 -119 -322 -71 -67 -142 -96 -248 -102
-253 -14 -427 149 -424 398 2 113 28 181 100 259 106 115 276 156 434 104z
m-724 -17 c58 -27 106 -80 123 -135 16 -56 13 -140 -8 -186 -19 -43 -92 -115
-115 -115 -31 0 -24 -23 49 -143 41 -68 77 -131 81 -140 5 -15 -4 -17 -87 -17
l-94 0 -74 135 -73 135 -59 0 -59 0 0 -135 0 -135 -80 0 -80 0 0 380 0 380
213 0 c202 0 214 -1 263 -24z m1236 -233 c3 -245 4 -260 25 -293 32 -52 74
-72 148 -73 69 -1 114 19 149 66 20 27 21 42 24 293 l3 264 84 0 85 0 0 -258
c0 -304 -6 -337 -76 -412 -61 -66 -126 -92 -237 -98 -151 -8 -262 36 -323 128
-45 68 -54 131 -54 398 l0 242 84 0 85 0 3 -257z m1092 245 c55 -17 131 -91
145 -143 27 -101 7 -200 -54 -261 -59 -58 -113 -74 -257 -74 l-118 0 0 -135 0
-135 -85 0 -85 0 0 380 0 380 206 0 c135 0 221 -4 248 -12z"/>
<path d="M3390 6240 l0 -100 111 0 c109 0 111 0 140 29 51 51 33 137 -33 160
-17 6 -73 11 -124 11 l-94 0 0 -100z"/>
<path d="M4840 6240 l0 -100 108 0 c124 0 145 9 163 69 9 30 9 44 -2 67 -22
47 -70 64 -176 64 l-93 0 0 -100z"/>
<path d="M5600 6240 l0 -100 111 0 c109 0 111 0 140 29 21 22 29 39 29 66 0
81 -42 105 -185 105 l-95 0 0 -100z"/>
<path d="M4926 5175 c-60 -21 -88 -46 -120 -105 -54 -99 -36 -238 40 -314 42
-41 90 -59 161 -59 139 1 233 114 221 267 -14 167 -153 264 -302 211z"/>
<path d="M4100 5080 l0 -100 111 0 c109 0 111 0 140 29 31 32 38 71 18 115
-19 41 -65 56 -173 56 l-96 0 0 -100z"/>
<path d="M6460 5080 l0 -100 101 0 c134 0 168 19 169 93 0 82 -42 107 -180
107 l-90 0 0 -100z"/>
</g>
</svg>
